<svg xmlns="http://www.w3.org/2000/svg" xmlns:xlink="http://www.w3.org/1999/xlink" width="40" height="40" viewBox="0 0 40 40"><defs><clipPath id="a"><rect width="40" height="40" transform="translate(0 0.32)" fill="#484b4d"/></clipPath></defs><g transform="translate(0 -50)"><rect width="40" height="40" transform="translate(0 50)" fill="rgba(38,39,41,0)"/><g transform="translate(0 49.68)" clip-path="url(#a)"><path d="M15.345,39.5a.5.5,0,0,0,.5.5H23.03a.5.5,0,0,0,.5-.5V19.842H28.74a.5.5,0,0,0,.5-.462l.5-5.92a.5.5,0,0,0-.46-.545H23.534v-4.2a1.783,1.783,0,0,1,1.783-1.784h4.013a.5.5,0,0,0,.5-.5V.5a.5.5,0,0,0-.5-.5H22.55a7.2,7.2,0,0,0-7.2,7.2h0v5.71H11.754a.5.5,0,0,0-.5.5v5.922a.5.5,0,0,0,.5.5h3.591Z" transform="translate(-0.541)" fill="#eeab3a"/></g></g></svg>