<svg xmlns="http://www.w3.org/2000/svg" xmlns:xlink="http://www.w3.org/1999/xlink" width="40" height="44" viewBox="0 0 40 44"><defs><clipPath id="a"><rect width="40" height="40" transform="translate(0 0.32)" fill="#484b4d"/></clipPath></defs><g transform="translate(-55 -46)"><rect width="40" height="40" transform="translate(55 46)" fill="rgba(38,39,41,0)"/><g transform="translate(55 49.68)" clip-path="url(#a)"><path d="M36.225,27.951a8.273,8.273,0,0,1-8.274,8.274h-15.9a8.274,8.274,0,0,1-8.275-8.274v-15.9a8.275,8.275,0,0,1,8.275-8.275h15.9a8.274,8.274,0,0,1,8.274,8.275ZM40,12.047A12.049,12.049,0,0,0,27.949,0H12.05A12.048,12.048,0,0,0,0,12.047v15.9A12.05,12.05,0,0,0,12.05,40h15.9A12.051,12.051,0,0,0,40,27.949ZM20.068,26.585A6.328,6.328,0,1,1,26.4,20.257,6.335,6.335,0,0,1,20.068,26.585Zm0-16.2a9.877,9.877,0,1,0,9.879,9.877A9.889,9.889,0,0,0,20.068,10.38ZM30.522,7.364a2.351,2.351,0,0,0,0,4.7h0a2.351,2.351,0,0,0,0-4.7Z" fill="#eeab3a"/></g></g></svg>