<svg xmlns="http://www.w3.org/2000/svg" xmlns:xlink="http://www.w3.org/1999/xlink" width="40" height="44" viewBox="0 0 40 44"><defs><clipPath id="a"><rect width="40" height="40" transform="translate(0 0.32)" fill="#484b4d"/></clipPath></defs><g transform="translate(-115 -46)"><rect width="40" height="40" transform="translate(115 46)" fill="rgba(38,39,41,0)"/><g transform="translate(115 49.68)" clip-path="url(#a)"><path d="M39.85,7.7a16.471,16.471,0,0,1-4.039,1.154c.65-.11,1.609-1.287,1.994-1.765a7.43,7.43,0,0,0,1.344-2.45c.036-.07.064-.157-.007-.211a.235.235,0,0,0-.215.019,20.619,20.619,0,0,1-4.8,1.837A.321.321,0,0,1,33.8,6.2a4,4,0,0,0-.419-.43,8.519,8.519,0,0,0-2.325-1.425,8.11,8.11,0,0,0-3.567-.575,8.526,8.526,0,0,0-3.382.956A8.758,8.758,0,0,0,21.374,6.95a8.389,8.389,0,0,0-1.63,3.265,8.885,8.885,0,0,0-.087,3.446c.028.192.01.219-.164.192C12.9,12.875,7.436,10.515,3,5.462c-.192-.22-.3-.22-.455.016-1.941,2.91-1,7.584,1.425,9.881.324.306.655.612,1.014.891A8.4,8.4,0,0,1,1.8,15.36c-.192-.121-.289-.051-.306.166a4.978,4.978,0,0,0,.052.945A8.458,8.458,0,0,0,6.76,23.214a4.929,4.929,0,0,0,1.057.324,9.426,9.426,0,0,1-3.121.1c-.227-.045-.315.069-.227.286,1.372,3.744,4.337,4.859,6.557,5.491.3.054.595.054.892.124-.017.026-.035.026-.052.052-.737,1.122-3.29,1.957-4.479,2.375a16.055,16.055,0,0,1-6.8.869c-.365-.054-.442-.049-.541,0-.1.064-.012.15.1.244.462.306.935.577,1.416.84a22.479,22.479,0,0,0,4.547,1.819c8.171,2.256,17.375.6,23.512-5.5,4.816-4.787,6.5-11.387,6.5-18,0-.257.305-.4.487-.537A15.807,15.807,0,0,0,39.8,8.374a.972.972,0,0,0,.2-.639V7.7C40,7.595,40.012,7.626,39.85,7.7Z" transform="translate(0 -0.224)" fill="#eeab3a"/></g></g></svg>