<?xml version="1.0" encoding="utf-8"?>
<!-- Generator: Adobe Illustrator 16.0.2, SVG Export Plug-In . SVG Version: 6.00 Build 0)  -->
<!DOCTYPE svg PUBLIC "-//W3C//DTD SVG 1.1//EN" "http://www.w3.org/Graphics/SVG/1.1/DTD/svg11.dtd">
<svg version="1.1" id="Layer_1" xmlns="http://www.w3.org/2000/svg" xmlns:xlink="http://www.w3.org/1999/xlink" x="0px" y="0px"
	 width="200px" height="123px" viewBox="0 0 200 123" enable-background="new 0 0 200 123" xml:space="preserve">
<g transform="translate(0 -1)">
	<path fill="#EEAB3A" d="M18.252,19.126c3.126-0.124,10.751-0.374,14.628-1.25c-0.126,1.626-0.376,6.626-0.376,16.125v4.25
		c3.5-2.876,6.377-4.376,9.877-4.376c3.603-0.14,7.017,1.615,9,4.626c1.732,3.088,2.596,6.587,2.5,10.126
		c0,11.623-5.5,18.249-16.628,18.249c-3.037-0.066-6.022-0.792-8.751-2.126c-1.5,0.5-3.5,1.5-5.5,2.126L22.376,66.5
		c0.126-3.376,0.126-9.75,0.126-18.375v-16c0-4-0.126-6.75-0.25-9.124c-0.126-1.626-0.5-1.876-4.251-1.876L18.252,19.126z
		 M37.252,64.5c4.251,0,6.251-5.126,6.251-14.625c0.137-3.177-0.462-6.343-1.75-9.25c-0.756-1.52-2.302-2.486-4-2.5
		c-1.902,0.095-3.634,1.125-4.627,2.75c-0.624,0.876-0.874,1.626-0.874,11.5c0,8.126,0.376,8.376,0.876,9.376
		c0.701,1.659,2.324,2.741,4.126,2.749H37.252z M75.752,66.126c-2.626,0-5.251-0.252-9.377-0.252c-4.375,0-6.5,0.252-8.625,0.252V64
		c3.5-0.126,4-0.75,4.126-2.126c0.124-1.5,0.25-3.874,0.25-7.75v-8c0-3.25,0-5.874-0.126-7s-0.626-1.5-3.876-1.374v-2.125
		c4.377-0.374,9.627-0.5,13.878-1.374c-0.126,1.626-0.25,4.626-0.25,11.5v8.626c0,4,0.126,5.75,0.25,7.5s0.626,2,3.75,2.374V66.126z
		 M66.382,19.752c3.252,0,5.127,1.876,5.127,5.25c0,2.876-2.126,4.876-5.377,4.876c-2.57,0.122-4.752-1.862-4.875-4.432
		c-0.007-0.148-0.007-0.296,0-0.444c-0.165-2.731,1.916-5.08,4.648-5.244c0.16-0.01,0.319-0.012,0.479-0.006H66.382z M79.009,19.126
		c4.567-0.079,9.123-0.496,13.628-1.25c-0.169,5.165-0.253,10.332-0.252,15.5v15.625c2.376-0.626,7.5-6.876,9.5-10.5
		c0.377-0.75,0.377-1.126-0.623-1.126l-2.75-0.25v-2.124c4.627,0.126,9.377-0.126,14.127-0.376v2.126
		c-3.5,0.376-4.877,0.626-6.252,1.75c-2.152,1.932-4.158,4.021-6,6.25c1.5,3.126,7.752,14.625,10.127,17.749
		c0.701,1.02,1.891,1.591,3.125,1.5l1.748,0.126l-0.123,2.124c-4.639-0.098-9.277,0.153-13.879,0.75c-1.5-3.5-6-12-7.375-14.625
		c-0.75-1.374-1.126-1.874-1.626-1.75c0,5.126-0.124,7.626,0.126,11.249c0.126,1.626,0.5,2.126,3.876,2.25v2.126
		c-2.376,0-4.877-0.25-9-0.25c-4.877,0-7,0.25-8.877,0.25v-2.126c3.25-0.124,3.75-0.748,3.876-2c0.124-1.5,0.248-4.75,0.248-11.249
		V34.751c0-5.126,0-9-0.124-12.249c0-0.75-0.5-1.125-1.5-1.126h-2.126L79.009,19.126z M48.882,96.998
		c-2.126,6.75-6.251,10-13.128,10c-5.877,0-9.627-1.626-12.251-5.126c-2-2.624-3-6.5-3-10.874c0-9.626,5.877-17,16.628-17
		c6.5,0,11.251,3,11.251,7.876c0,3.374-2.75,4.748-5,4.748c-0.87-0.014-1.726-0.228-2.5-0.624c-0.777-0.457-1.141-1.387-0.88-2.249
		c0.187-0.865,0.313-1.743,0.376-2.626c0-3.124-1.126-4.624-3.5-4.624c-3.876,0-5.876,5.626-5.876,13.376
		c0,3.124,0.376,6.624,1.5,8.748c1.25,2.876,3.25,4.5,6.251,4.5c3.75,0,6.127-2.124,7.877-7L48.882,96.998z M56.002,87.875
		c0.058-2.922-0.067-5.846-0.376-8.752c-0.031-0.727-0.645-1.291-1.372-1.26c-0.042,0.002-0.085,0.006-0.128,0.012h-2.25v-2.126
		c3.75-0.126,8.877-0.376,12.5-1.5l0.376,0.25c0.25,1.5,0.5,5.126,0.626,7.376h0.248c1.628-4.376,3.876-7.876,8.5-7.876
		c2.602,0.042,4.677,2.185,4.635,4.786c-0.001,0.07-0.004,0.143-0.008,0.214c0,4.126-3.126,5.376-4.377,5.376
		c-1.015,0.154-2.016-0.348-2.5-1.252c-0.624-1.374-1-2.124-2.248-2.124c-1.376,0-2.126,1.25-3,3.25
		c-0.466,1.453-0.678,2.976-0.626,4.5c0,7.126,0,11.125,0.126,12.875s0.748,2.248,5.749,2.374l-0.124,2.126
		c-3.5-0.126-6.627-0.252-10.251-0.252c-3.75,0-6.5,0.126-9.627,0.252l0.374-2.126c3-0.126,3.75-0.5,3.75-1.75
		c0.126-1.75,0.25-5.126,0.25-9v-5.375h-0.247V87.875z M98.383,82.125c0-3.752-1.252-5.752-3.752-5.752
		c-2.874,0-4.248,1.626-4.248,4.626c0.015,0.798,0.098,1.593,0.248,2.376c0.163,0.719-0.134,1.465-0.748,1.874
		c-1.042,0.688-2.252,1.077-3.5,1.126c-2.376,0-4.377-1.128-4.377-3.876c0-4,5.877-8.5,14.128-8.5c6.749,0,9.749,2.75,10.875,4.5
		c0.648,1.007,0.995,2.179,1,3.376v18.373c0,2.126,0.626,2.626,1.376,2.626c1,0,2.124-1.626,2.624-4.376l2.126,1
		c-1.126,5.376-4.377,7.626-8.877,7.626c-3.876,0-6-1.626-6.627-4.876c-3,3-6.125,4.876-9.375,4.876c-5.251,0-8.751-3.5-8.751-9.252
		c0-3.5,1.5-5.5,4.126-6.624c4.248-1.876,10.625-3.75,13.75-6v-3.125L98.383,82.125z M90.511,95.998c0,2.75,1.126,5.75,3.876,5.75
		c2,0,2.874-1.25,3.5-2.5c0.288-0.973,0.414-1.986,0.374-3v-8.5c-1.376,0.876-3.5,1.876-5.127,2.876
		C91.635,91.625,90.511,92.873,90.511,95.998z M115.264,75.125l4,0.124v-2c0.127-5.25,1.377-9.126,4.127-11.875
		c2.389-2.463,5.693-3.821,9.125-3.75c5.127,0,7.877,2.5,7.877,5.75c0,2.376-2,4-4.754,4c-1.302,0.079-2.421-0.913-2.5-2.216
		c-0.006-0.094-0.006-0.189,0-0.284c0-2.624-0.373-4.748-2.248-4.748c-1.252,0-2,1.124-2.252,3.25c-0.248,2,0.127,5.75,0.377,11.623
		h6.127l-0.377,2.5l-5.75,0.376c-0.127,2.374-0.127,6.5-0.127,11.373c0,4.626,0,8.75,0.127,12c0.125,1.626,0.375,2.25,1.75,2.376
		c1.119,0.14,2.246,0.223,3.375,0.248l-0.254,2.126c-2.373,0-6.125-0.25-9.375-0.25c-3.375,0-7.377,0.25-9.627,0.25l0.127-2.126
		c3.25-0.124,3.75-0.5,3.875-1.874c0.248-2.126,0.248-5.376,0.248-9.75V77.749l-4.248-0.25l0.375-2.376L115.264,75.125z"/>
	<path fill="#EEAB3A" d="M158.127,75.12l-0.252,2.373l-7.627,0.5c0,2.626-0.126,6.5-0.126,11.751c0,5.5,0,9.251,0.252,11.5
		c0.124,1.626,0.748,2.376,2,2.376c2.624,0,4.249-2.876,4.875-5.5h1l0.878,2.873c-1.5,3.626-5.253,6.127-10.753,6.127
		c-3,0-5.625-1-6.875-2.5c-0.928-1.308-1.37-2.898-1.251-4.497c0-5.13,0.25-16.63,0.25-22.13l-4-0.376l0.25-2.374h3.75
		c0.126-2.376,0.126-5.127,0.126-7.627c3.285-0.744,6.444-1.965,9.376-3.623l0.75,0.126c-0.219,3.705-0.344,7.413-0.376,11.125
		h7.753v-0.126V75.12z"/>
	<path fill="#EEAB3A" d="M190,10.919v103.162H10V10.919H190z M200,1H0v123h200V1z"/>
</g>
</svg>
