<?xml version="1.0" encoding="utf-8"?>
<!-- Generator: Adobe Illustrator 16.0.2, SVG Export Plug-In . SVG Version: 6.00 Build 0)  -->
<!DOCTYPE svg PUBLIC "-//W3C//DTD SVG 1.1//EN" "http://www.w3.org/Graphics/SVG/1.1/DTD/svg11.dtd">
<svg version="1.1" id="Layer_1" xmlns="http://www.w3.org/2000/svg" xmlns:xlink="http://www.w3.org/1999/xlink" x="0px" y="0px"
	 width="100px" height="62px" viewBox="0 0 100 62" enable-background="new 0 0 100 62" xml:space="preserve">
<path fill="#FFFFFF" d="M9.125,9.562C10.688,9.5,14.5,9.375,16.438,8.937C16.375,9.75,16.25,12.25,16.25,17v2.125
	c1.75-1.438,3.188-2.188,4.938-2.188c2.125,0,3.562,0.938,4.5,2.313c0.812,1.313,1.25,3.125,1.25,5.063
	c0,5.812-2.75,9.125-8.313,9.125c-1.5,0-3.313-0.5-4.375-1.063c-0.75,0.25-1.75,0.75-2.75,1.063l-0.313-0.188
	c0.063-1.688,0.063-4.875,0.063-9.188v-8c0-2-0.063-3.375-0.125-4.562c-0.063-0.813-0.25-0.938-2.125-0.938L9.125,9.562z
	 M18.625,32.25c2.125,0,3.125-2.563,3.125-7.313c0-1.937-0.313-3.562-0.875-4.625c-0.5-0.812-1.125-1.25-2-1.25
	c-0.938,0-1.75,0.563-2.313,1.375c-0.312,0.438-0.437,0.813-0.437,5.75c0,4.063,0.188,4.188,0.438,4.688
	C17,31.813,17.813,32.25,18.625,32.25z M37.875,33.063c-1.313,0-2.625-0.125-4.688-0.125c-2.187,0-3.25,0.125-4.312,0.125V32
	c1.75-0.063,2-0.375,2.063-1.063C31,30.187,31.063,29,31.063,27.062v-4c0-1.625,0-2.937-0.063-3.5
	c-0.063-0.562-0.313-0.75-1.938-0.687v-1.063c2.188-0.187,4.813-0.25,6.938-0.687c-0.063,0.813-0.125,2.313-0.125,5.75v4.313
	c0,2,0.063,2.875,0.125,3.75c0.063,0.875,0.313,1,1.875,1.187V33.063z M33.187,9.875c1.626,0,2.563,0.938,2.563,2.625
	c0,1.438-1.063,2.438-2.688,2.438c-1.437,0-2.437-1-2.437-2.438C30.625,11,31.625,9.875,33.187,9.875L33.187,9.875z M39.5,9.562
	c2.438-0.062,5.313-0.312,6.813-0.625c-0.084,2.583-0.126,5.166-0.126,7.75V24.5c1.188-0.313,3.75-3.438,4.75-5.25
	c0.188-0.375,0.188-0.563-0.313-0.563l-1.375-0.125V17.5c2.313,0.063,4.688-0.063,7.063-0.188v1.063
	c-1.75,0.188-2.438,0.313-3.125,0.875c-0.938,0.813-2,1.938-3,3.125c0.75,1.563,3.875,7.313,5.063,8.875
	c0.375,0.563,0.938,0.75,1.563,0.75l0.875,0.063l-0.063,1.063c-3,0-5.563,0.125-6.938,0.375c-0.75-1.75-3-6-3.688-7.313
	c-0.375-0.687-0.563-0.937-0.813-0.875c0,2.563-0.062,3.813,0.063,5.625c0.063,0.813,0.25,1.063,1.938,1.125v1.063
	C47,33.125,45.75,33,43.688,33c-2.438,0-3.5,0.125-4.438,0.125v-1.063c1.625-0.063,1.875-0.375,1.938-1
	c0.062-0.75,0.124-2.375,0.124-5.625v-8.062c0-2.563,0-4.5-0.062-6.125c0-0.375-0.25-0.563-0.75-0.563h-1.063L39.5,9.562z
	 M24.438,48.5c-1.063,3.375-3.125,5-6.563,5c-2.938,0-4.813-0.813-6.125-2.563c-1-1.313-1.5-3.25-1.5-5.438
	c0-4.813,2.938-8.5,8.313-8.5c3.25,0,5.625,1.5,5.625,3.938c0,1.688-1.375,2.375-2.5,2.375c-0.375,0-0.938-0.125-1.25-0.313
	c-0.375-0.25-0.563-0.625-0.438-1.125c0.063-0.5,0.188-0.813,0.188-1.313c0-1.563-0.563-2.313-1.75-2.313
	c-1.938,0-2.938,2.813-2.938,6.688c0,1.563,0.188,3.313,0.75,4.375c0.625,1.438,1.625,2.25,3.125,2.25
	c1.875,0,3.063-1.063,3.938-3.5L24.438,48.5z M28,43.938c0-2-0.063-3.563-0.188-4.375c-0.062-0.438-0.312-0.625-0.75-0.625h-1.125
	v-1.063c1.875-0.063,4.438-0.188,6.25-0.75l0.188,0.125c0.125,0.75,0.25,2.563,0.313,3.688h0.124C33.626,38.75,34.75,37,37.063,37
	c1.313,0,2.313,1.063,2.313,2.5c0,2.063-1.563,2.688-2.188,2.688c-0.624,0-1.062-0.188-1.25-0.625
	c-0.312-0.688-0.5-1.063-1.124-1.063c-0.688,0-1.063,0.625-1.5,1.625c-0.188,0.563-0.313,1.188-0.313,2.25
	c0,3.563,0,5.563,0.063,6.438c0.062,0.875,0.374,1.125,2.874,1.188l-0.062,1.063c-1.75-0.063-3.313-0.125-5.125-0.125
	c-1.875,0-3.25,0.063-4.813,0.125L26.125,52c1.5-0.063,1.875-0.25,1.875-0.875c0.063-0.875,0.125-2.563,0.125-4.5v-2.688H28
	L28,43.938z M49.188,41.063c0-1.875-0.626-2.875-1.876-2.875c-1.437,0-2.124,0.813-2.124,2.313c0,0.438,0.062,0.813,0.124,1.188
	c0.063,0.375-0.062,0.75-0.374,0.938c-0.438,0.313-1.188,0.563-1.75,0.563C42,43.188,41,42.624,41,41.25c0-2,2.938-4.25,7.063-4.25
	c3.375,0,4.875,1.375,5.437,2.25c0.313,0.5,0.5,1.063,0.5,1.688v9.188c0,1.063,0.313,1.313,0.688,1.313
	c0.5,0,1.063-0.813,1.313-2.188l1.063,0.5c-0.563,2.688-2.188,3.813-4.438,3.813c-1.938,0-3-0.813-3.313-2.438
	c-1.5,1.5-3.062,2.438-4.687,2.438c-2.625,0-4.375-1.75-4.375-4.625c0-1.75,0.75-2.75,2.063-3.313c2.124-0.938,5.312-1.875,6.874-3
	V41.063L49.188,41.063z M45.25,48c0,1.375,0.563,2.875,1.938,2.875c1,0,1.437-0.625,1.75-1.25c0.124-0.313,0.187-0.875,0.187-1.5
	v-4.25c-0.688,0.438-1.75,0.938-2.563,1.438C45.812,45.813,45.25,46.438,45.25,48z M57.625,37.563l2,0.063v-1
	c0.063-2.625,0.688-4.563,2.063-5.938c1.25-1.25,2.75-1.875,4.563-1.875c2.563,0,3.938,1.25,3.938,2.875c0,1.188-1,2-2.375,2
	c-0.75,0-1.25-0.5-1.25-1.25c0-1.313-0.188-2.375-1.125-2.375c-0.625,0-1,0.562-1.125,1.625c-0.125,1,0.063,2.875,0.188,5.813h3.063
	l-0.188,1.25L64.5,38.938c-0.063,1.188-0.063,3.25-0.063,5.688c0,2.313,0,4.375,0.063,6c0.063,0.813,0.188,1.125,0.875,1.188
	c0.625,0.063,1.125,0.125,1.688,0.125L66.936,53c-1.187,0-3.062-0.125-4.687-0.125c-1.688,0-3.688,0.125-4.813,0.125l0.063-1.063
	c1.625-0.063,1.875-0.25,1.938-0.938c0.123-1.063,0.123-2.688,0.123-4.875v-7.25l-2.123-0.125L57.625,37.563L57.625,37.563z"/>
<path fill="#FFFFFF" d="M79.063,37.563l-0.125,1.188L75.125,39c0,1.313-0.063,3.25-0.063,5.875c0,2.75,0,4.625,0.125,5.75
	c0.063,0.813,0.375,1.188,1,1.188c1.313,0,2.125-1.438,2.438-2.75h0.5l0.438,1.438c-0.75,1.813-2.625,3.063-5.375,3.063
	c-1.5,0-2.813-0.5-3.438-1.25c-0.438-0.563-0.625-1.25-0.625-2.25c0-2.563,0.125-8.313,0.125-11.063l-2-0.188l0.125-1.188h1.875
	c0.063-1.188,0.063-2.563,0.063-3.813C72.5,33.25,74.124,32.563,75,32l0.375,0.063c-0.109,1.854-0.172,3.707-0.188,5.563h3.875
	V37.563L79.063,37.563z"/>
<path fill="#FFFFFF" d="M95,5v52H5V5H95z M100,0H0v62h100V0z"/>
</svg>
