<?xml version="1.0" encoding="utf-8"?>
<!-- Generator: Adobe Illustrator 16.0.2, SVG Export Plug-In . SVG Version: 6.00 Build 0)  -->
<!DOCTYPE svg PUBLIC "-//W3C//DTD SVG 1.1//EN" "http://www.w3.org/Graphics/SVG/1.1/DTD/svg11.dtd">
<svg version="1.1" id="Layer_1" xmlns="http://www.w3.org/2000/svg" xmlns:xlink="http://www.w3.org/1999/xlink" x="0px" y="0px"
	 width="200px" height="140px" viewBox="0 0 200 140" enable-background="new 0 0 200 140" xml:space="preserve">
<path fill="none" stroke="#EEAB3A" stroke-width="4" stroke-linecap="round" stroke-linejoin="round" stroke-miterlimit="10" d="
	M47,79.4l31-45h56l-34,52 M100,86.4H51 M100,86.4L72,20H62h28.5 M156.7,79c-3.812,0-6.9,3.09-6.9,6.9s3.089,6.899,6.9,6.899
	c3.811,0,6.899-3.089,6.899-6.899S160.511,79,156.7,79L156.7,79z M156.7,79l-22.2-44.6V20H155c3.8,0,6.9,3.2,6.9,7s-3.101,7-6.9,7
	h-2.5 M77.6,85.9c0,18.942-15.357,34.3-34.3,34.3C24.357,120.2,9,104.843,9,85.9c0-18.943,15.357-34.3,34.3-34.3
	C62.243,51.6,77.6,66.957,77.6,85.9z M191,85.9c0,18.942-15.357,34.3-34.3,34.3c-18.943,0-34.3-15.357-34.3-34.3
	c0-18.943,15.356-34.3,34.3-34.3C175.643,51.6,191,66.957,191,85.9z M50.2,85.9c0.001,3.811-3.087,6.9-6.898,6.902
	c-3.811,0.001-6.901-3.087-6.902-6.898c0-0.001,0-0.003,0-0.004c0.001-3.811,3.092-6.899,6.902-6.898
	C47.111,79.004,50.199,82.092,50.2,85.9z"/>
</svg>
