<?xml version="1.0" encoding="utf-8"?>
<!-- Generator: Adobe Illustrator 16.0.2, SVG Export Plug-In . SVG Version: 6.00 Build 0)  -->
<!DOCTYPE svg PUBLIC "-//W3C//DTD SVG 1.1//EN" "http://www.w3.org/Graphics/SVG/1.1/DTD/svg11.dtd">
<svg version="1.1" id="Layer_1" xmlns="http://www.w3.org/2000/svg" xmlns:xlink="http://www.w3.org/1999/xlink" x="0px" y="0px"
	 width="200px" height="140px" viewBox="0 0 200 140" enable-background="new 0 0 200 140" xml:space="preserve">
<path fill="none" stroke="#EEAB3A" stroke-width="4" stroke-linecap="round" stroke-linejoin="round" d="M50.5,89.5h49 M99.5,89.5
	L89.306,74 M99.5,89.5c4.5-13.667,18.9-41,40.5-41 M75.496,53L63,34 M75.496,53C69,56,52,71,47,83.5 M75.496,53l13.81,21 M63,34H53
	 M63,34h18 M89.306,74C94.5,60.5,108.3,34,133.5,34H157 M113,15h11l4.4,9 M156,82.5L137.689,43 M137.689,43H160l-6-19h-25.6
	 M137.689,43L128.4,24 M78,89.5c0,19.055-15.446,34.5-34.5,34.5S9,108.555,9,89.5C9,70.446,24.446,55,43.5,55S78,70.446,78,89.5z
	 M50,89.5c0,3.59-2.91,6.5-6.5,6.5S37,93.09,37,89.5s2.91-6.5,6.5-6.5S50,85.91,50,89.5z M191,89.5c0,19.055-15.445,34.5-34.5,34.5
	S122,108.555,122,89.5c0-19.054,15.445-34.5,34.5-34.5S191,70.446,191,89.5z M163,89.5c0,3.59-2.91,6.5-6.5,6.5s-6.5-2.91-6.5-6.5
	s2.91-6.5,6.5-6.5S163,85.91,163,89.5z"/>
</svg>
