<?xml version="1.0" encoding="utf-8"?>
<!-- Generator: Adobe Illustrator 16.0.2, SVG Export Plug-In . SVG Version: 6.00 Build 0)  -->
<!DOCTYPE svg PUBLIC "-//W3C//DTD SVG 1.1//EN" "http://www.w3.org/Graphics/SVG/1.1/DTD/svg11.dtd">
<svg version="1.1" id="Layer_1" xmlns="http://www.w3.org/2000/svg" xmlns:xlink="http://www.w3.org/1999/xlink" x="0px" y="0px"
	 width="200px" height="140px" viewBox="0 0 200 140" enable-background="new 0 0 200 140" xml:space="preserve">
<path fill="none" stroke="#EEAB3A" stroke-width="4" stroke-linecap="round" stroke-linejoin="round" stroke-miterlimit="10" d="
	M45.5,95c-9.665,0-17.5,7.835-17.5,17.5S35.835,130,45.5,130S63,122.165,63,112.5S55.165,95,45.5,95z M45.5,95
	c10.1-34.1,42.6-59,80-59 M125.5,36C99.819,36,79,56.819,79,82.5c0,25.682,20.819,46.5,46.5,46.5c25.682,0,46.5-20.818,46.5-46.5
	C172,56.819,151.182,36,125.5,36z M125.5,36h0.5c10,0,10-16,0-16h-19l12-11 M79,50V38H60v29 M52,112.5c0,3.59-2.91,6.5-6.5,6.5
	s-6.5-2.91-6.5-6.5s2.91-6.5,6.5-6.5S52,108.91,52,112.5z M132,82.5c0,3.59-2.91,6.5-6.5,6.5s-6.5-2.91-6.5-6.5s2.91-6.5,6.5-6.5
	S132,78.91,132,82.5z"/>
</svg>
